<?xml version="1.0" encoding="UTF-8"?>
<svg id="Lager_1" xmlns="http://www.w3.org/2000/svg" version="1.1" viewBox="0 0 1024 1024">
  <!-- Generator: Adobe Illustrator 29.8.2, SVG Export Plug-In . SVG Version: 2.1.1 Build 3)  -->
  <defs>
    <style>
      .st0 {
        fill: #d3d3d3;
      }

      .st1 {
        fill: #2d2d2d;
      }
    </style>
  </defs>
  <rect class="st0" width="1023" height="1024"/>
  <g>
    <path class="st1" d="M799,573l-628.86-1.14c-1.65-1.03-2.09-30.8-2.15-35.35-.02-1.65-1-3.31-1-5.01,0-3.08,1.89-6.95.99-10.5,77.32,6.71,154.44,15.95,231.51,24.99,8.54,1.89,11.25-3.31,16.49-8.49l-12.22,3.23c-73.46-12.22-147.7-19.47-221.5-29l-7.06-12.4c23.38-36.73,49.48-72.21,74.83-107.79l137.51-32.57,4.76.98,14.65,15.55-69.95,72c-.16.75.96.64,1.48.48,3.88-1.22,9.7-4.67,14.03-5.98l61.36-61.64c4.66-4.59-8.81-27.2-7.86-28.37,11.01,5.28,23.88,5.87,35.99,5.99l-33.52-10.96c-8.44-8.19-18.34-10.72-28.14-15.86s-19.37-13.06-28.31-19.67l10.97-7.49c-9.9-1.87-22.37-1.02-29.94-8.63-.32-1.8,6.67-6.44,8.46-8.37,1.29-1.4,8.04-9.53,8.48-10.53,1.44-3.24-6.89.82-7.96,1.04-3.01.63-14.14,3.49-14.07-1.03,1.4-4,5.82-5.46,8.57-8.48,8.26-9.06,13.46-22.71,16.52-34.44-12.4-5.18-11.56-30.75-3.53-38.58,1.58-1.54,8.1-4.42,8.26-5.47-9.21-26.29-16.47-66.09-6.55-92.81,3.06-8.24,5.22-11.1,14.27-10.71,31.94,1.38,61.18,25.32,86.04,42.96,37.91-9.55,77.95-9.03,115.89.02,19.04-13.32,37.53-28.24,59.59-36.48,7.32-2.73,30.5-9.39,36.45-4.48,9.39,7.74,9.27,44.78,8.57,56.51-.93,15.57-5.98,30.07-9.72,45.02,8.33,5.19,12.8,8.5,13.72,18.9.83,9.42.12,20.2-9.07,25.12,3.35,11.7,8.71,25.82,17.04,34.9,1.28,1.4,10.45,7.43,8.99,9.5-7.21,2.33-14.76-1.03-22-1.98l15.95,19.38c-7.45,7.37-19.24,6.9-28.95,8.62l10.99,7.97c-8.46,5.18-16.1,11.81-24.69,16.82-10.27,5.98-20.95,11.9-31.29,17.71-10.91,6.13-19.55,6.92-31.24,9.77-1,.24-3.01.3-2.77,1.7,13.77-1.31,27.58-.42,39.91-7.57,4.23-2.45,7.61-6.32,12.07-8.42,1.06,19.83,18.36,27.25,31.02,38.49,21.75,19.3,72.05,67.84,79.11,94.89,1.24,4.76,2.21,9.68,1.88,14.63l-28.38-.88-2.63,6.88h47.5c1.09,0,4.69,1.74,6.55,1.45l19.95,23.54c-9.23-.29-18.34-4.32-27.46-5.03-52.74-4.07-110.01,2.42-162.99-2.01-41.09.25-82.13-.55-123.07-1.79l-15.47,6.82,81.54.97c72.46.85,145.5.97,217.92,3.08,8.93.26,20.74-1.19,29.09-.09,1.75.23,2.16.36,3.53,1.47.94.76,9.92,12.26,9.92,13.08v35.5ZM650.99,172c6.27-19.09,9.64-39.27,7.99-59.49-.21-2.59-1.67-13.83-4.45-14.15-6.88-.8-27.52,12.65-33.43,17.24s-23.01,20.2-25.09,26.92c-.41,1.32.14,1.88,1.47,1.47,2.48-.77,11.25-7.9,13.99-10.01,8.07-6.24,15.16-14.3,25.52-16.97l-18.99,26.99,18.99-6.99c-1.64,7.3-11.17,12.9-8.55,21.05,1.99,6.17,16.81,11.35,22.55,13.95ZM422.99,145c-7.65-16.3-24.29-31.01-39.97-39.52-3.55-1.93-16.61-8.43-19.89-6.34-6.59,23.27-3.63,50.83,6.36,72.83,6.63-3.61,22.01-8.01,21.58-17.45-.27-5.97-7.39-11.47-10.07-16.51l18.99,5.99c0-4.42-20.03-24.98-17.99-26.99,16.01,5.45,26,20.75,40.99,27.99ZM478,183.99c-2.22-10.11-4.51-24.61-18-22.99-3.1,5.7,15.73,25.21,18,22.99ZM557,162.01c-14.34-2.58-15.69,11.53-18,21.98,9.67-2.82,15.7-12.7,18-21.98ZM410.8,175.3c-17.64,1.42-28.56,6.1-42.27,16.73-2.4,1.86-4.7,5.5-7.16,6.84s-5.79,1.05-7.92,3.08c-3.6,3.43-3.53,17.69,0,21.1,1.44,1.39,4.79,1.7,5.39,3.61,1.42,4.49,1.29,13.26,2.87,19.13,16.34,60.61,102.93,47.05,125.46-4.11,5.2-11.81,3.3-25.26,20.43-25.56s16.1,14.14,21.22,25.57c16.22,36.23,63.3,54.66,99.86,38.5,17.93-7.93,25.88-23.71,30.03-41.97.73-3.23.64-9.18,1.46-11.54.88-2.53,6.82-2.08,7.78-8.22.41-2.66.42-9.22,0-11.88-1.14-7.32-7.01-5.4-11.32-7.68-2.69-1.42-3.55-4.63-5.58-6.42-24.35-21.43-61.61-20.03-91.26-12.18-12.92,3.42-21.17,7.94-35.24,8.76s-35.86.9-49.74-2.34c-23.83-5.56-37.29-13.56-64-11.4ZM600,297.01c-17.3-.77-33.84-5.81-48.3-15.2-18.55-12.05-21.27-22.03-47.18-20.8-19.54.93-22.22,8.94-36.19,18.8-14.89,10.51-31.96,16.4-50.31,17.19l8.5,1.98c7.85.72,16.07.43,23.87,1.13,1.1.1,5.51.46,5.62,1.86l-41.99,8,42.99,4.02c.24,1.44-1.73,1.35-2.78,1.69-9.9,3.22-20.38,3.46-30.45,5.57-.96.2-3,.36-2.75,1.72,27.89,9.24,51.43,36.11,81.51,38,35.97,2.26,61.85-26.23,93.48-38,.25-1.36-1.79-1.52-2.75-1.72-9.58-2-19.51-2.5-29.07-4.94-1.41-.36-4.95-.61-5.17-2.32l36.49-3.02,7.5-1.98c-12.53-1.57-27.19-2.53-39.21-6.31-1.05-.33-3.02-.26-2.78-1.69l31.49-2.02,7.5-1.98ZM386,372.01c-4.07.08-8.17-.29-12.24.25-23.19,3.06-58.9,14.09-82.76,20.24-8,2.06-16.28,3.98-23.97,7.03-19.51,28.41-35.45,59.26-50.01,90.48l57.02-80.47,106.25-30.75,5.72-6.77ZM626,409v16.5c0,.94,2.39,10.67,2.94,11.06l7.07-.07-10.01-27.49ZM408.99,446v-17.49s-1.98-11.51-1.98-11.51l-5.09,25.38,7.07,3.62ZM622,490.5c.97-4.82-.71-12.33,0-17.5,11.77,5.2,4.08,22.63,6.52,27.98,2.01,4.4,10.22,6.71,14.75,5.8,13.39-2.71,11.68-22.13,7.73-31.77,5.45,1.75,9.93,12.27,10.04,17.54.14,6.91-5.1,13.15,6.57,14.39,18.27,1.94,18.58-20.81,13.41-32.93,5.27,3.84,8.84,8.01,9.88,14.61.37,2.34-.82,8.73,1.68,9.33,3.84.93,10.54-5.05,11.92-8.95,15.97-45.06-105-67.65-108.47-12.48-.66,10.49,6.15,26.03,19.04,22.03,2.4-.75,6.49-5.81,6.94-8.05ZM396,473v16.5c0,2.22,3.16,8.53,5.71,9.29,12.86,3.85,18.36-14.98,16.84-24.85-6.58-42.58-88.67-29.8-98.27,1.83-3.22,10.6-1.15,22.65,11.72,23.22-.16-4.83-.29-8.64,1.23-13.27.48-1.46,5.85-11.76,7.77-9.72-3.36,9.37-4.7,29.15,8.59,30.95,17.89,2.43,5.13-17.26,13.97-25.89l5.44-5.05c-4.99,10.26-4.82,32.87,11.4,30.97,13.91-1.63,7.44-15.11,8.84-23.24.63-3.68,3.57-8.64,6.76-10.74ZM504.99,454.01l-76.99,3c.57,4.12-2.02,8.69-2,12.5.02,2.71,1.61,5.4,1.88,8.1.73,7.24-.79,12.96-3.88,19.4l80.99-42.99ZM309.99,492c-.42-7.5-.01-14.08,3-21-19.43,5.55-42.3,4.28-57.99,18.5l54.99,2.49ZM527,472h-32.5c-3.22,0-48.86,26.11-57.14,29.86-5.79,2.62-26.92,11.91-31.89,12.18-4.47.25-8.42-2.25-12.97-2.13-6.18.17-12.2,2.12-19.99,2.07-10.2-.06-22.21,1-31.8-2.2-24.93-8.3-36.16-8.45-62.2-10.8-7.32-.66-43.74-6.03-47.51-2.99-.24,2.65-.04,1.62,1.5,1.98,57.27,13.33,116.79,16.68,173.94,29.99l120.56-57.98ZM592,494.99l-3.63-5.86c-5.95-.51-11.97.2-17.91-.09-13.86-.66-35.58-2.99-48.9-.98-1.43.22-12.59,4.75-12.57,5.44l83.01,1.49ZM491.5,535c-5.29-.89-15.08,0-21,0-.15,0-2.12,1.02-2.28,1.24l-4.22,15.16c.05.55,2.35,1.59,2.5,1.59h24l3.41-16.89c-.88-.04-1.88-1.02-2.41-1.11ZM536,553v-16.5l-1.5-1.5h-22.5l-1,18h25ZM579,553l-5.5-18h-19c-1.02.75-1.09.87-1.09,2.04,0,5.05,1.45,10.86,1.59,15.96h24ZM637,536.01c3.83,4.35,7.53,14.59,13.16,16.32,4.31,1.33,13.52.89,18.33.65,3.52-.17,8.55-.57,12.06-.94,1.52-.16,2.48-.12,3.43-1.55-3.11-3.76-9.27-13.62-13.93-15.06-3.21-.99-31.69-.78-33.05.57ZM621,553l-8.5-17h-20.5l5,17h24Z"/>
    <path class="st1" d="M170,613l1.58-28.02c38.66.27,77.3.57,115.97.98,136.82,1.44,274.1,1.31,410.92,0,33.56-.32,67.12.58,100.55-.96-.75,8.77,4,19.13-1.5,27h-19.5v24H193.99s1.01-23,1.01-23h-25ZM635,615l-10.71-15.79-50.75-1.25c-56.3,2.88-116.16-3.69-172.04.06-3.37.23-6.82,1.47-10.3,1.21l-10.2,15.78h254Z"/>
    <path class="st1" d="M851,802c-19.83,1.05-39.65.54-59.55.95-140.51,2.94-281.19,3.15-421.92,2-76.2-.63-152.46-.66-228.55-2.95l.44-8.07c1.27-1.83,25.6-.76,30.1-.89,119.65-3.5,240.22-3.21,359.91-2.99,105.84.19,211.35.19,317.05,2.95l2.36,1.64.14,7.37Z"/>
    <path class="st1" d="M301.78,672.28c24.45-2.78,48.69,7.19,54.76,32.69,7.43,31.21.83,71.72-37.14,75.93-29.36,3.25-52.12-6.96-57.1-37.69-5.33-32.85,1.09-66.56,39.49-70.93ZM308.75,695.19c-8.38.73-9.73,12.67-9.79,19.27-.02,1.8,1.05,3.85,1.08,6.01.13,8.69-.5,23.82,2.22,31.77,3.29,9.59,14.65,7.7,17.05-1.41,2.91-11.02,1.91-36.32-1.27-47.37-1.19-4.11-4.41-8.69-9.3-8.26Z"/>
    <path class="st1" d="M140.99,660.01v-8.01c12.16-.23,24.38.3,36.55.05,170.31-3.6,341.47-2.18,511.92-1,42.73.3,85.4-.13,128,1,8.63.23,23.53-1.48,31.04-.04,3.45.66,2.89,4.18,2.06,7.07l-68.01,1.98c-202.53-2.46-405.67,3.58-608.01-1.09-11.17-.26-22.39.27-33.55.05Z"/>
    <path class="st1" d="M732,779h-39l-4.58-19.06-29.41.06-4.51,18.99h-31.5l29.96-104.54c1.78-1.18,38.25-1.05,42.6-.52,1.1.14,2.22-.06,2.96,1.04l33.48,104.02ZM683,738.99c-3.13-11.99-4.86-24.53-8-36.49-.36-1.38.03-3.11-1.99-3.5l-8.09,39.36c5.43,3.91,12.03-.35,18.08.63Z"/>
    <path class="st1" d="M402,750v29h-35v-105h50.5c5.03,0,20.31,7.14,24.04,10.96,12,12.33,13.31,40.82,1.46,53.53-4.5,4.83-18.1,11.51-24.49,11.51h-16.5ZM401,729c16.6,3.93,17.87-15.61,14.34-26.84-2.34-7.47-14.34-8.11-14.34-5.66v32.5Z"/>
    <path class="st1" d="M255,676v26c-10.09-5.27-30.43-7.87-37.45,3.05-4.87,7.58-4.74,30.33-1.76,38.66,5.93,16.52,26.09,11.14,39.2,8.29l1.05,23.35c-25.87,11.16-67.05,7.16-78.06-22.82-5.8-15.79-5.62-42.54,2.5-57.54,13.29-24.53,50.61-26.58,74.52-18.98Z"/>
    <path class="st1" d="M618,702c-30.16-10.84-42.26-2.01-40.04,29.55,1.91,27.22,17.48,26.23,40.04,20.45v23.5c-25.29,11.09-64.56,6.77-75.49-22.51-5.41-14.5-5.62-38.35.31-52.67,11.55-27.87,50.04-34.42,75.18-22.82v24.5Z"/>
    <path class="st1" d="M481.5,674l15,44.01,14.5-44.01h34l-32,70.5v34.5h-35v-35.5c0-3.02-21.97-47.6-25.18-54.82-2.12-4.78-4.48-9.6-5.82-14.68h34.5Z"/>
    <polygon class="st1" points="806 674 806 700 780 700 780 779 745 779 745 701.5 743.5 700 719 700 719 674 806 674"/>
    <path class="st1" d="M532,274.01c-.76,12.38-14.21,15.36-18.74,26.75-5.82,14.65,5.42,21.42,18.61,21.63,7.71.12,12.56-3.25,19.13-6.39-3.15,11.02-9.91,15.96-21.49,14.98-7.06-.6-14.46-5.15-21.95-5.02-5.94.1-13.3,4.02-19.31,4.77-11.21,1.41-20.88-2.49-22.23-14.74,8.36,5.73,14.92,7.94,25.02,5.53,17.41-4.16,18.1-16.89,6.99-29.05-5.14-5.62-14.8-9.26-12.89-18.34,15.25-4.09,31.43-1.89,46.86-.13Z"/>
    <path class="st1" d="M581.8,184.3c42.08-3.55,80.41,5.48,67.91,56.91-12.84,52.86-86.53,45.26-109.88,3.46-22.08-39.52,4.84-57.23,41.97-60.37ZM569.99,196.01c-19.93-5.09-31.14,8.75-25.98,27.99l11.95-18.54,14.04-9.44Z"/>
    <path class="st1" d="M406.79,184.29c20.71-2.1,47.72,1.39,65.34,13.08,14.82,9.83,14.4,23.12,8.65,38.9-17.2,47.17-97.01,62.24-111.49,5.94-8.29-32.22,3.27-54.45,37.51-57.92ZM403.99,196.01c-20.24-5.54-30.56,9.04-25.98,27.99l9.46-15.03,16.52-12.96Z"/>
    <path class="st1" d="M530,197l-7.58,12.93c-9.83-3.82-19.02-3.43-28.81.15-2.03-4.82-3.76-9.34-7.61-13.07h44Z"/>
  </g>
</svg>