<?xml version="1.0" encoding="UTF-8"?>
<svg id="Lager_1" xmlns="http://www.w3.org/2000/svg" version="1.1" viewBox="0 0 1024 1024">
  <!-- Generator: Adobe Illustrator 29.8.2, SVG Export Plug-In . SVG Version: 2.1.1 Build 3)  -->
  <defs>
    <style>
      .st0 {
        fill: #18181f;
      }
    </style>
  </defs>
  <path class="st0" d="M680.71,328.97c13.62,3.88,26.26,8.08,37.46,17.06,1.85,1.48,5.38,3.48,5.53,5.96-9.53-4.83-20.42-8.97-30.77-11.72-4.17-1.1-15.58-4.7-18.79-2.35l-11.42,16.05c15.4,5.54,31.69,12.85,42,26-10.61-4.81-20.81-10.62-31.75-14.74-3.56-1.34-15.45-5.98-18.2-4.75-1.52.68-8.82,6.27-8.84,7.78-.03,3.5,5.99,18.27,7.91,22.1,2.93,5.86,7.59,12.19,11.47,17.53,2.61,3.6,18.24,24.83,19.88,26.12,2.9,2.27,11.65,3.58,15.8,5.2,24.26,9.5,49.1,29.13,47.73,57.77,9.81.3,19.73-.4,29.55-.05,8.31.3,23.12.39,30.14,3.86,17.98,8.88,19.06,29.94,17.37,47.73-1.56,16.52-18.02,5.37-26.03,10.97-2.34,1.63-17.96,25.86-17.96,27.98,5.58,10.7,12.29,20.9,19.13,30.82,5.02,7.28,22.49,27.8,23.58,34.42-.58,39.07,4.79,84.22,1.29,122.81-.37,4.03-1.01,6.9-5.5,7.5-12.84,1.73-32.29-.34-46.09-.09-138.48,2.52-277.37.24-416.01,1.09-49.02-5.24-103.44,3.39-152-.99-6.03-.54-7.98-1.54-8.49-7.51-1.76-20.62.8-42.49,1.04-63.04.22-18.48-2.37-40.35.26-58.74,1.33-9.26,18.86-28.06,25.13-36.87s18.04-21.8,15.14-32.92c-.99-3.77-11.88-20.64-15.02-22.98-8.66-6.45-25.1,2-26.53-10.47-1.45-12.65-1.44-33.51,7.99-43.06,10.94-11.08,25.9-9.99,40.49-10.51,9.48-.34,19.06.33,28.55.05-2.35-27.26,21.06-46.99,44.01-56.49,3.89-1.61,14.14-3.72,16.53-5.47,2.27-1.66,18.5-22.66,21.42-26.58,6.24-8.36,19.9-28.96,20-39.11.03-3.1-6.56-7.99-9.03-8.86-3.6-1.27-19.35,5.18-23.91,7.03-8.92,3.62-17.41,8.23-26.02,12.47-1.82-1.82,11.62-11.45,13.08-12.41,8.63-5.71,19.07-10.45,28.91-13.6l-13.52-17.04c-17.02,1.98-32.96,8.34-48.48,15.04,5.1-5.6,12.37-10.95,19.13-14.36,7.94-4,16.68-5.77,24.85-9.12-9.67-18.05-14.26-37.11-10.53-57.56.76-4.19,5.24-14.98,5.15-17.45-.06-1.61-2.25-4.01-2.62-6.97-.52-4.16-.47-16.68.46-20.59,1.99-8.42,9.43-5.65,13.12-8.87,5.75-5.02-3.94-16.36-6.41-21.7-13.37-28.89-24.84-75.14-16.65-106.36,1.68-6.39,3.4-11.74,10.27-13.73,18.87-5.46,51.12,8.32,67.91,17.56,17.63,9.72,32.98,23.41,51.09,31.99,32.26-9.43,60.26-12.5,93.44-5.52,5.91,1.24,17.36,6,22.28,5.77,6.29-.29,36.03-23.01,44.2-27.87,16.72-9.95,36.51-19.32,55.93-22.07,21.83-3.09,27.91-.71,31.24,21.51,4.18,27.89-3.66,65.17-14.69,91.04-2.13,5-11.22,19.91-11.23,23.82-.03,9.83,12.81,4.22,14.83,14.23.74,3.66.8,17.99.18,21.72-.44,2.64-2.81,4.24-2.88,6.02-.1,2.13,3.03,9.29,3.64,12.33,4.64,23.19.88,42.3-9.7,63.19h-.04ZM452.71,169.98c2.52-6.64,6.28-13.03,2.77-20.27-1.75-3.61-17.38-18.36-21.3-21.7-18.67-15.87-49.87-34.79-73.84-40.16-18.57-4.16-24.05-3.58-25.62,16.64-1.57,20.3,2.35,42.19,8.49,61.48,2.3,7.22,10.95,30.47,17.51,33.49,3.81,1.75,15.72-3.17,20.78-4.19,50.76-10.16,93.69,8.55,142.7,5.7,42.41-2.47,73.97-14.44,118.52-5.5,11.29,2.26,18.31,9.45,25.81-2.17,13.95-21.63,25.54-74.57,18.5-99.13-1.3-4.55-2.83-7.4-7.88-8.12-27.83-3.94-92.74,38.58-108.85,61.02-7.24,10.07-1.11,12.23.99,20.87.92,3.8-8.49,1.13-10.29.25-6.18-3.01-8.45-10.5-9.16-16.84-.61-5.38,1.81-13.02-3.11-16.37-5.04,13.08-9.1,27.33-18.51,37.98-7.25-11.28-.69-26.16-2.51-38.98-7.33,7.67-8.68,25.13-14.7,32.74-.63.8.02,1.84-2.27,1.26l-13.53-34c-3.18-1-.49,8.08-.45,9.47.13,3.93.71,27.86-2.56,28.54-2.52-.32-3.83-3.08-5.02-4.96-5.91-9.36-9.38-21.75-13.48-32.03-2.38-.41-1.88.27-2.45,1.99-2.79,8.41.18,17.46-4.7,25.35-3.47,5.61-9.36,7.89-15.83,7.66v-.02ZM682.5,228.2c-3.27-1.84-6.73-.58-10.17-2.34-2.63-1.35-8.45-9.96-12.15-12.85-37.52-29.29-115.47-2.35-161.02-4.98-40.08-2.31-94.51-20.72-131.75,2.15-6.45,3.96-12.6,13.81-16.33,15.67s-6.73.19-9.47,2.53c-1.3,1.63-1.27,10.68-.95,13.14.77,5.87,3.84,3.36,7.04,4.96s3.54,14.19,4.49,18.51c15.73,71.16,101.25,60.03,132.68,5.66,5.51-9.53,9.93-29.07,21.55-31.45,22.93-4.68,25.15,21.05,34.87,35.68,22.5,33.88,73.07,55.53,108.32,27.51,18.53-14.73,19.09-29.77,23.32-50.68,1.75-8.69,7.56-4.26,9.31-6.69,1.57-5.74,2.01-11.07.25-16.83h.01ZM674.7,300.98c-18.17,5.49-34.95,16.62-53.77,19.72-35.15,5.79-66.07-10.67-84.03-40.42-4.66-7.71-11.73-28.01-18.5-31.5-4.72-2.44-8.72-2.54-13.4,0-7.34,3.99-14.52,25.58-19.88,34.12-21.22,33.79-59.01,46.44-96.95,34.12-13.64-4.43-26.46-12.14-40.47-15.53.76,3.99,4.77,16.04,8.06,17.94,17.31,3.71,34.6,7.71,50.95,14.56l-1.5,2.01-39.49-1.02c-1.62,1.44,8.27,12.42,10.02,13.53,15.01-1.35,30-3.81,44.97-.52l-36.99,7c9.6,9.51,23.34,17.81,35.33,24.16,10.54,5.59,19.99,9.2,31.46,12.54,9.91,2.89,21.25,3.96,30.21,8.79-3.36,1.45-8.83,2.42-12.45,2.54-9.86.32-23.8-1.58-33.55-3.53-9.48-1.9-18.56-5.43-27.99-7.5-1.31,1.21,7.82,8.48,9.08,9.41,5.6,4.17,36.14,19.37,35.71,25.09-.68,1.4-1.8,2.17-3.32,2.46-11.06,2.12-31.92-10.32-44.27-12.67-8.26-1.57-16.88-2.07-25.2-.29l24.91,12.57,47.08,31.93c.87,3.55-7.15,2.43-9.23,2.21-13.59-1.47-25.59-8.77-38.77-11.72-.69.67,6.35,10.61,7.17,12.32,3.53,7.38,4.39,14.29,5.76,22.24,5.79,1.03,11.72.14,17.55.45,51.18,2.67,114.96,3.86,166.06,1.04,2.87-.16,5.57-.82,8.4-1.1.33-7.44,1.71-14.88,4.89-21.62,1.1-2.34,8.34-11.81,7.16-13.33-10.83,2.86-20.94,8.27-31.98,10.51-2.15.44-16.08,3.38-15.99-.01,1.07-1.29,2.34-2.3,3.65-3.33,19.48-15.23,43.95-29.23,66.11-39.89,1.18-.57,2.96-.56,3.21-2.27-10.26-2.22-20.72-.94-30.78,1.71-11.5,3.03-28.19,13.36-39.72,11.27-1.45-.26-2.62-.77-2.53-2.46.06-3.88,10.43-10.26,13.72-12.33,10.93-6.87,24.02-11.65,32.31-22.18-8.64.73-16.46,4.79-24.8,6.69-13.75,3.14-31.66,4.51-45.71,3.3-1.85-.16-5.27-.38-4.49-2.99,12.41-3.09,25.66-5.73,37.78-9.73,14.56-4.8,28.21-12.68,41.13-20.87,4.62-2.93,12.24-7.44,16.03-10.97,1.49-1.39.96-1.4-.67-2.22l-35.27-7.21c5.56-.63,13.07-2.11,18.49-2.11,4.43,0,24.68,3.37,26.47,2.62s11.6-11.99,10.02-13.53l-39.49,1.02-1.5-2.01c16.77-7.1,34.61-10.94,52.33-14.94l6.66-18.08h.01ZM379.71,484.48c.83,5.64,0,14.86,0,21,0,.55,1.76,3.02,2.67,3.35,21.52-.85,26.83-26.72,17.15-43.17-22.25-37.81-94.34-23.22-111,13.64-4.67,10.32-5.56,29.59,10.25,27.24,1.92-10.83,3.18-23.84,13.92-29.56-3.01,11.38-8.92,20.87-4.46,32.97,4.72,12.83,24.81,16.3,26.47,1.53,1.1-9.79-.99-22.2,8.99-28.5-.65,12.66-8.7,42.74,13.42,39.92,20.66-2.64,10.34-30.16,21.1-40.91.29-.13,1.45,2.22,1.49,2.49h0ZM723.72,506.98c20.62-.11,14.58-23.3,6.43-34.93-20.08-28.64-74.81-40.46-100.93-14.06-12.72,12.86-16.13,39.9,1.79,49.19,16.02,8.31,10.86-10.26,11.82-19.58.1-.93.69-7.49,2.86-5.62,8,12.7-.5,35.78,18.2,40.3,22.46,5.44,17.21-26.36,14.83-39.31,16.67,6.66.1,37.45,19.48,38.09,22.35.74,20.03-29.85,11.51-43.08,11.33,2.9,12.99,19.08,14.01,28.98v.02ZM210.42,515.2c-1.13.25-3.14,1.3-3.79,2.21-1.75,2.47-1.44,29.95.55,32.59,1.22,1.62,14.04,1.11,17.06,1.02,139.94-4.15,280.84-1.63,420.92-1,49.99.23,100.12-1.05,150.09-.09,4.4.08,19.57,3.51,21.29-1.62.94-2.81.02-11.05.17-14.83.29-7.23,4.41-16.93-6.49-18.53-21.56,2.74-52.54-3.61-72.97.08-10.06,1.81-13.58,6.08-20.64,11.36-6.72,5.02-15.21,6.39-23.45,5.63-3.47-.32-6.97-2.33-9.87-2.03-2.7.27-6.01,3.18-9.33,3.75-7.06,1.22-13.8-.14-19.95-3.57-3.39-1.89-8.45-7.82-10.34-8.66-5.12-2.28-15.61-2.58-21.45-6.55l-222.09-.04c-5.72,3.86-16.29,4.32-21.41,6.59-6.11,2.72-8.74,10.83-20.61,12.39-10.75,1.41-15.75-4.53-19.91-4.54-1.34,0-4.61,2.19-7.09,2.54-11.58,1.59-19.09-.85-27.91-7.92-1.44-1.15-1.83-3.33-3.55-4.45-3.24-2.11-10.67-1.88-14.52-4.48l-74.72.15h.01ZM655.7,616.98c-1.46-14.84-3.31-29.68-4.99-44.5-.34-2.97.87-12.17-2.64-13.36l-274.37.86c-1.26,20.37-4.48,41.11,1.58,61.06,17.05-1.2,33.94-4.44,50.93-6.05,67.71-6.43,135.28.04,203.04-.05l26.46,2.03h-.01ZM332.21,593.98c-2.65,1.36-4.06,2.88-5.69,5.31-7.41,11-12.32,27.47-18.65,39.39-.24,4.34,14.05,3.69,17.4,3.36,3.81-.37,4.7-.97,6.64-4.36,3.63-6.37,14.41-30.26,16.12-36.88.38-1.47,1.55-6.82-.81-6.82h-15.01ZM693.21,594.98h-17c-2.21,1.4-.22,5.26.46,7.54,3.62,12.04,11.44,24.87,15.98,36.76,3.16,3.93,17.23,3,21.97,1.62.34-1.37.17-2.82-.14-4.18-.97-4.26-14.82-33.36-17.57-37.43-1.09-1.61-2.18-3.07-3.7-4.3h0ZM274.94,606.74c1.21,1.12,3.61,1.15,5.23,1.28,4.05.34,20.79.64,23.84-.25,2.25-.66,6.3-7.03,5.65-9.17-1.07-3.52-25.29-3.29-29.23-2.41-3.5.78-7.89,8.32-5.49,10.54h0ZM718.21,606.98c7.38,1.25,21.72,0,30,0,3.24,0,.19-10-2-10h-31c-2.92,0-.99,9.32,3,10ZM269.21,622.98c4.16,1.17,22.1,0,28,0,1.73,0,5.72-8.75,4.5-11-1.26-1.23-27.01-1.62-29.57-.07s-7.82,9.69-2.93,11.07ZM755.71,610.98h-26.5c-.44,0-7.36,1.28-7.6,1.59-1.39,2.75-.16,5.07,2.09,6.91l31.35-1.65c3.02-.94,1.07-4.76.65-6.85h0ZM263.37,627.14c-2.13,2.06-7.49,9.92-2.16,10.84,2.73.47,8.89.88,11.96,1.04s13.76.51,15.88-.21c1.69-.58,7.28-8.66,4.07-10.74-4.57-2.96-23.34-.19-29.75-.94h0ZM766.45,628.24c-3.94-3.71-25.06.67-31.21-.24-5.34.34-2.46,8.39.42,9.42.73.26,13.29-.34,15.54-.46,2.49-.13,16.99-1.3,17.49-2.02.15-1.69-1.17-5.7-2.23-6.7h0ZM816.71,700.48v-46l-2.95-2.05-601.6-.5-5.45,1.05v46.5c0,.36,1.02,1.62,1.17,2.34l29.37.11c185.07.94,371.05,1.71,555.92,0,5.91-.05,15.82,1,21.04.05,1.12-.21,1.87-.51,2.5-1.5h0ZM317.71,764.48v-53l-2.5-1.5-106.93-1.04c-4,18.2.16,37.07-.56,55.54l1.64,2.43,108.36-2.42h-.01ZM815.71,708.98h-106.5c-.36,0-1.62,1.02-2.34,1.17l-.23,1.3.07,54.53h109v-57ZM367.21,771.98h289c.64,0,1.44-1.62,1.54-2.5.24-2.17-13.13-37.08-15.17-40.88-1.98-3.69-3.7-5.83-8.33-5.67l-246.81.28c-3.95.71-5.43,2.44-7.23,5.77-2.88,5.31-13.04,32.27-14.08,37.95-.28,1.52-1.06,4.39,1.07,5.04h.01ZM696.56,737.12c-14.03.83-28.06-2.61-41.86.37,1.32,4.55,1.61,7.3,6.76,8.24,3.42.63,32.87.74,34.29-.22,1.83-2.53,2.4-5.6.81-8.4h0ZM368.71,736.98h-41.5c-3.39,4.83-1.94,8.48,3.94,9.06,5.57.55,28.79.62,33.06-1.06,3.36-1.33,3.77-4.72,4.5-8Z"/>
  <path class="st0" d="M404.21,948.98c-.24,0-1.33,1.9-1.5.5l-1-107.5,27.01-2,1.49,10c17.83-17.63,43.07-12.29,51.28,11.73,9.67,28.27-7.37,67.61-41.78,56.78l-10-6.5v37c-8.48.14-17.01-.19-25.5,0h0ZM440.36,859.33c-3.72.1-9.05,2.81-10.21,6.6-.88,2.88-.93,26.83.07,29.03,1.61,3.55,7.03,6.24,10.99,6.11,20.03-.65,19.89-42.31-.85-41.74Z"/>
  <path class="st0" d="M300.7,837.99c-7.2-2.07-14.89-4.4-22.53-4.04-41.6,1.95-41.65,67.78,4.08,65.07,6.41-.38,12.43-3.43,18.5-3.61l4.84,18.45c-.69,1.1-16.16,5.48-18.63,5.87-28.59,4.54-59.68-6.1-66.59-36.9-7.78-34.74,11.23-66.56,47.86-69.83,6.01-.53,35,.11,38.05,4.97,1.43,2.27-6.03,16.05-5.57,20.02h0Z"/>
  <path class="st0" d="M515.21,840.98l16.01,49.01,14.49-49.01h28c-9.93,23.65-18.13,48.36-28.83,71.67-5.76,12.56-18.24,37.33-34.67,37.33h-15c-.36,0-1.62-1.02-2.34-1.17l1.89-20.81c9.82,2.97,21.33-.26,22.96-11.42l-33.01-75.6h30.5Z"/>
  <path class="st0" d="M732.71,918.98h-24.5l-3.01-8.01c-8.7,7.84-16.24,10.07-28.02,9.05-15.92-1.39-25.85-15.41-20.77-30.84,5.84-17.74,31.38-20.86,47.31-21.2-1.53-17.58-26.04-9.81-36.7-5.15-3.24.17-5.43-12.13-6.88-14.87,19.37-13.05,67.51-14.94,70.57,15.54,1.2,11.97-.73,25.79-.03,38.03.33,5.71,2.5,11.61,2.04,17.46h0ZM703.71,882.98c-.39-.4-9.55,1.06-11.05,1.46-20.17,5.49-5.19,27.06,8.07,15.07,5.12-4.63,3.54-10.36,2.98-16.53Z"/>
  <path class="st0" d="M344.49,839.26c30.96-3.73,50.34,16.34,47.1,47.1-4.76,45.17-77.35,46.67-82.6-1.15-2.55-23.22,12.02-43.11,35.5-45.94h0ZM348.45,857.19c-14.74,2.86-15.38,39.71-1.46,45,20.95,7.96,23.41-49.26,1.46-45Z"/>
  <path class="st0" d="M781.71,820.98v22h19v19h-19v31.5c0,7.24,12.92,8.6,17.99,5.49l1.91,16.33c-8.42,6.45-27.11,6.5-36.22,1.49-6.14-3.38-11.68-13.37-11.68-20.32v-34.5h-12v-19h12.01c.37-4.1-.97-10.77,1.16-14.33,1.86-3.11,22.1-6.24,26.83-7.67h0Z"/>
  <path class="st0" d="M645.54,844.14l-3.85,17.85c-4.72-1.54-9.44-3.66-14.5-3.98-33.56-2.11-34.29,45.28.06,43.02,5.58-.37,10.13-3.12,15.5-3.62l4.56,17.63c-33.31,13.27-77.97,3.11-73.58-40.52,3.26-32.39,46.47-43.57,71.83-30.36l-.02-.02Z"/>
  <path class="st0" d="M518.06,348.64c7.83,8.68,27.8,8.71,38.66,10.35,2.29,1.98-6.93,4.39-7.95,4.55-13.69,2.13-26.07-.78-37.39-8.39-13.05,8.91-29.79,12.05-44.66,5.82-.27-2.67,0-1.6,1.49-1.96,11.1-2.69,40.66-1.48,40.59-18.53-.03-6.92-13.03-14.63-17.73-19.85-10.75-11.94-1.17-21.38,12.16-22.63,11.2-1.05,35.01-2.09,33.53,14.49-1.22,13.62-32.45,20.9-18.7,36.15h0ZM527.71,305.97c-.83-2.26-3.39-2.76-5.48-3.01-3.23-.38-25.56-.15-26.52,1.04-2.33,2.86,3.36,3.79,5.51,3.98,4.09.35,24.55.48,26.49-2.01h0Z"/>
  <path class="st0" d="M565.31,335.07c5.4-1.8,5.93,5.9,1.77,7.85-3.63-.12-4.84-6.83-1.77-7.85Z"/>
  <path class="st0" d="M453.31,335.07c5.4-1.8,5.93,5.9,1.77,7.85-3.63-.12-4.84-6.83-1.77-7.85Z"/>
  <path class="st0" d="M557.7,334.98l-.16,5.34c-1.99,6.52-10.49-6.07.16-5.34Z"/>
  <path class="st0" d="M468.61,335.1l-.38,5.91-3.5.97c-1.01-3.09-2.04-5.96,1.46-7.72l2.42.85h0Z"/>
  <path class="st0" d="M668.7,104.99c.53,2.22-1.29,2.21-2.3,3.19-5.02,4.89-11.5,8.55-16.71,13.29-6.5,5.9-12.38,12.52-16.98,20.02,4.35,1.98,23.53-8.98,25.99-6.51.59,10.68-9.91,18.69-15.99,26.51l11.33-.55c4.02,5.18-2.65,16.42-7.38,19.49-4.17,2.71-13.8,4.24-17.5.6-3.99-3.92,1.26-6.05,1.54-10.05-6.15-.57-12.59,2.8-18.57.07-4.05-2.91,5.02-9.51,5.58-13.06-8.87.3-16.96,5.41-25.97,1.95-2.38-3.5,15.66-21.47,18.96-24.48,15.73-14.35,36.66-27.4,58.01-30.48h-.01Z"/>
  <path class="st0" d="M406.71,157.99c.93,4.95,7.07,7.42,5.95,12.95-6.86,2.41-13.03-.33-19.95.06,8.01,10.03-1.31,13.85-11.07,11.56-7.14-1.67-15.2-12.68-12.78-19.93,1.35-4.04,9,.98,11.85-1.14-3.58-4.73-7.82-8.95-11.02-13.98-14.56-22.82,9.11-7.83,19.31-5.3.8.2,2.54,1.8,1.71-.7-4.13-12.47-27.09-26.86-35.98-36.51,25.18,3.59,52.7,22.25,69.03,41.46,1.54,1.81,9.34,10.93,7.03,13.01-4.87,4.38-18.01-1.72-24.05-1.48h-.03Z"/>
  <path class="st0" d="M796.71,530.99c0,2.74.83,5.38-2.5,6s-35.07.61-36.57-.44l-.94-5.56c13.41.74,26.84-1.25,40,0h.01Z"/>
  <path class="st0" d="M409.5,207.28c18.68-1.26,49.56.65,65.53,10.88,27.89,17.87-1.56,61.74-20.99,75.65-47.63,34.1-104.17,1.24-94.88-57.88,3.48-22.16,31.83-27.41,50.35-28.65h-.01Z"/>
  <path class="st0" d="M594.5,207.28c26.3-1.45,67.54.51,70.24,34.17,6.56,81.8-92.63,85.46-122.5,18.5-19.01-42.62,18.5-50.81,52.26-52.67h0Z"/>
  <path class="st0" d="M536.7,214.99c-2.78,6.59-8.66,12.19-8,20-4.41-.04-7.76-3.68-11.94-4.56-7.66-1.61-14.66.6-20.56,5.54l-9.5-20.97c16.99,2.46,33.01,2.24,49.99,0h.01Z"/>
</svg>